<?xml version="1.0" encoding="UTF-8" standalone="no"?>
<!DOCTYPE svg PUBLIC "-//W3C//DTD SVG 1.1//EN" "http://www.w3.org/Graphics/SVG/1.1/DTD/svg11.dtd">
<svg width="100%" height="100%" viewBox="0 0 128 128" version="1.1" xmlns="http://www.w3.org/2000/svg" xmlns:xlink="http://www.w3.org/1999/xlink" xml:space="preserve" xmlns:serif="http://www.serif.com/" style="fill-rule:evenodd;clip-rule:evenodd;stroke-linecap:round;stroke-linejoin:round;stroke-miterlimit:1.5;">
    <path d="M22.783,76.05C18.649,73.437 16.143,68.888 16.142,63.997C16.141,59.107 18.646,54.557 22.778,51.942C43.716,38.694 76.648,17.856 93.826,6.986C96.759,5.131 100.325,4.563 103.689,5.418C107.052,6.272 109.916,8.472 111.607,11.502C111.608,11.503 111.608,11.504 111.608,11.504C114.834,17.283 112.969,24.575 107.365,28.095C88.649,39.85 50.199,64 50.199,64C50.199,64 88.823,88.714 107.43,100.62C112.905,104.124 114.649,111.319 111.384,116.941C111.383,116.941 111.383,116.942 111.383,116.942C109.702,119.836 106.916,121.921 103.666,122.718C100.415,123.515 96.981,122.955 94.152,121.167C77.137,110.411 43.878,89.386 22.783,76.05Z" style="fill:rgb(14,19,27);fill-opacity:0.6;stroke:rgb(213,233,255);stroke-width:4px;"/>
</svg>
