<?xml version="1.0" encoding="UTF-8" standalone="no"?>
<!DOCTYPE svg PUBLIC "-//W3C//DTD SVG 1.1//EN" "http://www.w3.org/Graphics/SVG/1.1/DTD/svg11.dtd">
<svg width="100%" height="100%" viewBox="0 0 128 128" version="1.1" xmlns="http://www.w3.org/2000/svg" xmlns:xlink="http://www.w3.org/1999/xlink" xml:space="preserve" xmlns:serif="http://www.serif.com/" style="fill-rule:evenodd;clip-rule:evenodd;stroke-linecap:round;stroke-linejoin:round;stroke-miterlimit:1.5;">
    <g transform="matrix(-0.549214,0.549214,-0.58643,-0.58643,121.567,74.9862)">
        <path d="M88.328,58.448C88.328,56.096 87.33,53.84 85.554,52.177C83.779,50.515 81.37,49.58 78.859,49.58L5.954,49.58C3.443,49.58 1.035,50.515 -0.741,52.177C-2.516,53.84 -3.514,56.096 -3.514,58.448L-3.514,58.452C-3.514,60.804 -2.516,63.059 -0.741,64.722C1.035,66.385 3.443,67.319 5.954,67.319L78.859,67.319C81.37,67.319 83.779,66.385 85.554,64.722C87.33,63.059 88.328,60.804 88.328,58.452L88.328,58.448Z" style="fill:rgb(14,19,27);fill-opacity:0.6;stroke:rgb(213,233,255);stroke-width:3.96px;"/>
    </g>
    <g transform="matrix(-0.497475,0.497475,-0.497475,-0.497475,162.512,29.7383)">
        <path d="M94.197,14.144C90.382,10.33 84.197,10.329 80.383,14.144C70.491,24.035 52.208,42.317 40.612,53.912C37.812,56.712 36.238,60.511 36.238,64.471C36.238,68.432 37.812,72.23 40.612,75.031C52.197,86.616 70.457,104.876 80.355,114.774C82.194,116.613 84.689,117.646 87.29,117.646C89.891,117.646 92.385,116.613 94.225,114.774C94.225,114.774 94.225,114.774 94.225,114.774C96.064,112.935 97.097,110.44 97.097,107.839C97.097,105.238 96.064,102.743 94.225,100.904C81.976,88.656 57.794,64.473 57.794,64.473C57.794,64.473 81.942,40.324 94.199,28.068C96.045,26.222 97.082,23.718 97.082,21.107C97.082,18.496 96.045,15.992 94.199,14.146C94.198,14.146 94.198,14.145 94.197,14.144Z" style="fill:rgb(14,19,27);fill-opacity:0.6;stroke:rgb(213,233,255);stroke-width:4.25px;"/>
    </g>
    <g transform="matrix(0.497475,-0.497475,0.497475,0.497475,-33.6374,98.2617)">
        <path d="M94.197,14.144C90.382,10.33 84.197,10.329 80.383,14.144C70.491,24.035 52.208,42.317 40.612,53.912C37.812,56.712 36.238,60.511 36.238,64.471C36.238,68.432 37.812,72.23 40.612,75.031C52.197,86.616 70.457,104.876 80.355,114.774C82.194,116.613 84.689,117.646 87.29,117.646C89.891,117.646 92.385,116.613 94.225,114.774C94.225,114.774 94.225,114.774 94.225,114.774C96.064,112.935 97.097,110.44 97.097,107.839C97.097,105.238 96.064,102.743 94.225,100.904C81.976,88.656 57.794,64.473 57.794,64.473C57.794,64.473 81.942,40.324 94.199,28.068C96.045,26.222 97.082,23.718 97.082,21.107C97.082,18.496 96.045,15.992 94.199,14.146C94.198,14.146 94.198,14.145 94.197,14.144Z" style="fill:rgb(14,19,27);fill-opacity:0.6;stroke:rgb(213,233,255);stroke-width:4.25px;"/>
    </g>
</svg>
