<?xml version="1.0" encoding="UTF-8" standalone="no"?>
<!DOCTYPE svg PUBLIC "-//W3C//DTD SVG 1.1//EN" "http://www.w3.org/Graphics/SVG/1.1/DTD/svg11.dtd">
<svg width="100%" height="100%" viewBox="0 0 128 128" version="1.1" xmlns="http://www.w3.org/2000/svg" xmlns:xlink="http://www.w3.org/1999/xlink" xml:space="preserve" xmlns:serif="http://www.serif.com/" style="fill-rule:evenodd;clip-rule:evenodd;stroke-linecap:round;stroke-linejoin:round;stroke-miterlimit:1.5;">
    <g transform="matrix(-0.556285,4.03267e-17,-4.03267e-17,-0.556285,135.755,67.8607)">
        <path d="M94.197,14.144C90.382,10.33 84.197,10.329 80.383,14.144C70.491,24.035 52.208,42.317 40.612,53.912C37.812,56.712 36.238,60.511 36.238,64.471C36.238,68.432 37.812,72.23 40.612,75.031C52.197,86.616 70.457,104.876 80.355,114.774C82.194,116.613 84.689,117.646 87.29,117.646C89.891,117.646 92.385,116.613 94.225,114.774C94.225,114.774 94.225,114.774 94.225,114.774C96.064,112.935 97.097,110.44 97.097,107.839C97.097,105.238 96.064,102.743 94.225,100.904C81.976,88.656 57.794,64.473 57.794,64.473C57.794,64.473 81.942,40.324 94.199,28.068C96.045,26.222 97.082,23.718 97.082,21.107C97.082,18.496 96.045,15.992 94.199,14.146C94.198,14.146 94.198,14.145 94.197,14.144Z" style="fill:rgb(14,19,27);fill-opacity:0.6;stroke:rgb(213,233,255);stroke-width:5.38px;"/>
    </g>
    <g transform="matrix(0.578351,2.89012e-17,-2.89012e-17,0.578351,-9.22622,57.5433)">
        <path d="M94.197,14.144C90.382,10.33 84.197,10.329 80.383,14.144C70.491,24.035 52.208,42.317 40.612,53.912C37.812,56.712 36.238,60.511 36.238,64.471C36.238,68.432 37.812,72.23 40.612,75.031C52.197,86.616 70.457,104.876 80.355,114.774C82.194,116.613 84.689,117.646 87.29,117.646C89.891,117.646 92.385,116.613 94.225,114.774C94.225,114.774 94.225,114.774 94.225,114.774C96.064,112.935 97.097,110.44 97.097,107.839C97.097,105.238 96.064,102.743 94.225,100.904C81.976,88.656 57.794,64.473 57.794,64.473C57.794,64.473 81.942,40.324 94.199,28.068C96.045,26.222 97.082,23.718 97.082,21.107C97.082,18.496 96.045,15.992 94.199,14.146C94.198,14.146 94.198,14.145 94.197,14.144Z" style="fill:rgb(14,19,27);fill-opacity:0.6;stroke:rgb(213,233,255);stroke-width:5.17px;"/>
    </g>
    <g transform="matrix(1,2.44929e-16,-2.44929e-16,1,-7.18324,-7.90422)">
        <path d="M88.112,31.793C89.658,31.791 91.14,32.404 92.234,33.496C93.327,34.588 93.941,36.07 93.941,37.615C93.941,37.615 93.941,37.616 93.941,37.617C93.941,39.163 93.327,40.646 92.234,41.739C91.14,42.832 89.658,43.447 88.111,43.447C78.86,43.447 60.599,43.447 48.213,43.447C44.835,43.447 41.596,44.788 39.208,47.176C36.82,49.564 35.479,52.803 35.479,56.181C35.479,57.412 35.479,58.614 35.479,59.725C35.479,62.935 32.876,65.537 29.667,65.537C29.666,65.537 29.665,65.537 29.664,65.537C26.454,65.537 23.852,62.935 23.852,59.725C23.852,58.397 23.852,56.907 23.852,55.323C23.852,42.365 34.349,31.857 47.306,31.841C61.778,31.824 79.221,31.803 88.112,31.793Z" style="fill:rgb(14,19,27);fill-opacity:0.6;stroke:rgb(213,233,255);stroke-width:3px;"/>
    </g>
    <g transform="matrix(-1,-1.22465e-16,1.22465e-16,-1,135.183,131.072)">
        <path d="M88.112,31.793C89.658,31.791 91.14,32.404 92.234,33.496C93.327,34.588 93.941,36.07 93.941,37.615C93.941,37.615 93.941,37.616 93.941,37.617C93.941,39.163 93.327,40.646 92.234,41.739C91.14,42.832 89.658,43.447 88.111,43.447C78.86,43.447 60.599,43.447 48.213,43.447C44.835,43.447 41.596,44.788 39.208,47.176C36.82,49.564 35.479,52.803 35.479,56.181C35.479,57.412 35.479,58.614 35.479,59.725C35.479,62.935 32.876,65.537 29.667,65.537C29.666,65.537 29.665,65.537 29.664,65.537C26.454,65.537 23.852,62.935 23.852,59.725C23.852,58.397 23.852,56.907 23.852,55.323C23.852,42.365 34.349,31.857 47.306,31.841C61.778,31.824 79.221,31.803 88.112,31.793Z" style="fill:rgb(14,19,27);fill-opacity:0.6;stroke:rgb(213,233,255);stroke-width:3px;"/>
    </g>
</svg>
